<?xml version="1.0" standalone="no"?>
<!DOCTYPE svg PUBLIC "-//W3C//DTD SVG 20010904//EN"
 "http://www.w3.org/TR/2001/REC-SVG-20010904/DTD/svg10.dtd">
<svg version="1.0" xmlns="http://www.w3.org/2000/svg"
 width="308.000000pt" height="315.000000pt" viewBox="0 0 308.000000 315.000000"
 preserveAspectRatio="xMidYMid meet">

<g transform="translate(0.000000,315.000000) scale(0.100000,-0.100000)"
fill="#000000" stroke="none">
<path d="M1281 2788 c-36 -5 -79 -15 -95 -23 -17 -8 -53 -19 -81 -25 -96 -21
-307 -127 -378 -191 -30 -27 -58 -49 -62 -49 -9 0 -103 -97 -140 -145 -86
-111 -116 -152 -121 -170 -4 -11 -14 -29 -23 -40 -19 -22 -61 -119 -61 -141 0
-8 -4 -14 -10 -14 -5 0 -10 -11 -10 -25 0 -22 -7 -43 -31 -100 -14 -32 -39
-249 -39 -336 0 -44 6 -108 14 -142 8 -34 20 -89 27 -122 7 -33 16 -64 21 -69
4 -6 8 -20 8 -32 0 -13 5 -26 10 -29 6 -3 10 -14 11 -23 0 -9 13 -42 29 -72
16 -30 37 -71 46 -90 9 -19 29 -51 44 -70 15 -19 34 -48 43 -65 23 -46 205
-223 293 -287 81 -58 248 -146 319 -168 22 -7 51 -16 65 -21 139 -45 428 -58
565 -26 107 25 196 52 235 70 19 9 63 27 98 41 35 14 84 42 110 64 26 21 63
49 82 62 147 100 288 278 396 500 55 114 65 144 94 284 22 107 27 310 11 423
-10 63 -45 194 -62 225 -5 10 -9 23 -9 29 0 19 -90 196 -106 210 -8 6 -14 17
-14 24 0 7 -7 18 -16 26 -9 7 -47 55 -86 106 -39 52 -79 98 -89 103 -9 6 -23
16 -31 23 -7 7 -29 24 -48 37 -19 13 -44 32 -54 42 -11 10 -25 18 -31 18 -7 0
-38 17 -71 38 -100 64 -280 123 -447 147 -112 16 -306 18 -406 3z m471 -51
c26 -7 50 -16 54 -20 4 -4 27 -7 50 -7 24 0 46 -4 49 -10 3 -5 15 -10 26 -10
10 0 27 -4 37 -9 9 -5 33 -16 52 -24 19 -9 46 -23 60 -31 14 -8 32 -17 40 -20
70 -26 282 -205 336 -285 14 -20 44 -65 68 -99 59 -87 106 -181 142 -287 56
-167 69 -480 24 -625 -11 -36 -20 -76 -20 -90 0 -14 -7 -38 -16 -55 -8 -16
-24 -55 -35 -85 -10 -30 -27 -66 -37 -80 -10 -14 -33 -52 -52 -85 -19 -33 -36
-62 -39 -65 -3 -3 -38 -43 -78 -90 -64 -76 -119 -130 -219 -214 -29 -24 -98
-64 -184 -106 -58 -29 -149 -57 -255 -79 -116 -24 -367 -30 -462 -11 -72 14
-195 51 -208 62 -5 4 -15 8 -22 8 -20 0 -102 40 -150 72 -23 15 -46 28 -50 28
-14 0 -94 60 -151 115 -29 27 -57 51 -62 53 -5 2 -28 29 -51 60 -23 31 -51 65
-61 74 -24 21 -118 178 -118 196 0 6 -4 12 -9 12 -14 0 -57 108 -92 230 -31
112 -32 120 -32 305 1 197 5 225 59 400 25 79 92 213 148 295 59 86 231 260
281 284 19 9 37 21 40 26 3 6 32 22 63 36 31 14 68 34 83 45 15 10 34 19 43
19 9 0 24 4 34 9 32 16 67 29 92 35 14 2 45 10 69 16 87 22 189 29 346 24 88
-3 181 -11 207 -17z"/>
<path d="M1457 2672 c-21 -25 -44 -94 -39 -119 4 -25 17 -30 28 -12 4 7 21 9
41 6 59 -10 63 -3 35 68 -28 70 -42 83 -65 57z"/>
<path d="M1607 2669 c-16 -9 -18 -18 -12 -56 6 -40 4 -45 -16 -50 -20 -6 -18
-8 16 -29 33 -20 41 -21 57 -9 19 13 58 10 58 -5 0 -4 10 -12 23 -17 25 -12
55 -1 70 24 13 21 22 15 35 -21 18 -50 37 -62 74 -48 40 15 58 6 58 -29 0 -23
6 -32 27 -40 15 -5 38 -7 51 -4 18 4 25 1 29 -15 3 -11 9 -20 13 -20 18 0 40
13 40 23 0 6 9 21 21 33 12 13 19 32 17 45 -3 23 -4 22 -46 -15 l-43 -39 -37
19 c-41 22 -49 40 -29 68 13 18 18 18 46 6 40 -16 59 -3 42 29 -13 23 -68 30
-87 11 -18 -18 -44 0 -44 31 0 22 -7 32 -30 44 -29 15 -33 14 -74 -10 -23 -14
-45 -25 -49 -25 -3 0 -3 15 0 33 7 46 -15 64 -57 47 -26 -11 -30 -18 -30 -51
0 -49 -14 -57 -45 -23 -26 28 -33 54 -15 54 16 0 11 37 -6 44 -22 8 -36 7 -57
-5z m323 -122 c0 -28 -17 -47 -42 -47 -13 0 -18 8 -18 28 0 35 6 42 37 42 17
0 23 -6 23 -23z"/>
<path d="M1225 2643 c-22 -3 -45 -9 -52 -15 -20 -16 -15 -48 9 -67 26 -22 16
-41 -21 -41 -31 0 -51 16 -51 41 0 27 -29 51 -54 43 -39 -11 -45 -30 -27 -82
20 -58 30 -66 54 -41 15 16 21 18 34 8 21 -18 104 -20 131 -3 26 17 31 71 7
80 -8 4 -15 15 -15 25 0 14 7 19 29 19 16 0 31 6 34 14 7 17 -1 27 -22 24 -9
-1 -34 -3 -56 -5z"/>
<path d="M906 2534 c-20 -20 -20 -22 4 -62 11 -18 20 -39 20 -46 0 -28 74 -37
84 -10 9 23 8 24 -14 24 -15 0 -20 7 -20 25 0 14 -7 28 -15 31 -8 4 -15 17
-15 30 0 28 -21 32 -44 8z"/>
<path d="M804 2462 c-42 -28 -31 -73 19 -86 22 -5 27 -12 25 -29 -4 -32 35
-36 56 -5 29 41 16 64 -44 81 -8 2 -15 12 -15 23 0 20 -23 29 -41 16z"/>
<path d="M1328 2446 c-31 -6 -60 -14 -64 -18 -4 -5 -18 -8 -31 -8 -44 0 -193
-74 -273 -135 -177 -136 -297 -330 -346 -559 -16 -78 -10 -293 11 -361 29 -93
65 -179 88 -208 13 -18 32 -50 43 -72 23 -50 33 -62 119 -153 95 -100 204
-169 330 -209 158 -50 176 -53 296 -53 134 0 269 29 371 81 75 37 217 131 218
142 0 4 24 31 53 60 54 54 87 93 87 103 0 3 9 18 19 32 141 198 185 580 91
787 -11 24 -20 47 -20 50 0 14 -36 83 -75 142 -40 60 -139 173 -153 173 -4 0
-21 13 -38 29 -26 24 -195 117 -259 142 -110 43 -341 60 -467 35z m275 -36
c81 -12 256 -64 284 -85 14 -10 15 -16 6 -25 -8 -9 -24 -9 -63 -1 -28 6 -75
11 -105 11 -59 0 -81 -14 -91 -58 -10 -48 -13 -51 -41 -57 -44 -10 -73 -24
-77 -37 -3 -7 -12 -48 -22 -91 -10 -46 -23 -81 -32 -84 -7 -3 -29 2 -48 11
-41 19 -64 20 -98 5 -34 -16 -38 -33 -16 -62 17 -21 18 -34 12 -108 l-7 -84
-50 -8 c-69 -11 -83 -27 -66 -72 7 -19 9 -41 4 -47 -4 -7 -8 -41 -8 -75 -1
-66 -21 -103 -57 -103 -10 0 -26 -4 -36 -9 -41 -21 -226 -91 -240 -91 -6 0
-36 -11 -67 -25 -65 -30 -100 -26 -110 13 -30 120 -40 310 -20 397 9 39 19 81
21 95 3 14 10 34 14 45 5 11 20 45 33 75 49 111 154 235 269 316 79 56 193
114 225 114 10 0 38 8 63 16 25 9 86 20 135 24 50 4 96 8 103 8 7 1 46 -3 85
-8z m227 -154 c50 -5 71 -3 85 9 26 19 51 19 59 -1 13 -33 -77 -67 -165 -63
-24 1 -63 -2 -86 -6 -43 -8 -43 -8 -43 23 0 24 7 35 27 46 16 8 34 11 43 6 8
-4 44 -10 80 -14z m286 -98 c35 -35 64 -67 64 -72 0 -6 9 -19 19 -30 21 -23
81 -137 81 -154 0 -6 8 -26 18 -44 26 -47 40 -118 48 -236 7 -109 0 -134 -36
-125 -10 3 -37 -5 -59 -17 -52 -30 -74 -22 -65 25 5 31 4 35 -14 35 -12 0 -31
-4 -44 -9 -74 -28 -169 -53 -184 -47 -15 6 -15 9 7 32 13 14 44 38 68 55 25
16 65 48 90 72 71 66 125 105 155 113 20 5 26 12 24 28 -5 34 -33 30 -97 -13
-33 -23 -70 -41 -82 -41 -19 0 -21 4 -15 30 9 50 -16 47 -91 -11 -138 -107
-219 -173 -259 -211 -36 -34 -48 -40 -87 -40 -26 0 -51 3 -57 7 -16 10 -12 98
6 123 9 14 26 22 43 22 57 0 151 48 151 77 0 18 -7 17 -75 -17 -63 -32 -125
-40 -125 -16 0 8 20 18 48 26 71 18 92 28 92 45 0 18 -13 18 -65 0 -69 -25
-85 -17 -85 40 0 30 12 34 85 28 54 -5 69 -2 135 29 81 36 133 54 192 63 41 6
56 21 39 38 -10 10 -105 -5 -141 -23 -106 -55 -152 -70 -219 -70 -39 0 -71 4
-71 9 0 14 13 20 52 25 18 3 82 30 142 60 93 48 117 56 164 56 75 0 152 24
160 50 3 9 -4 11 -29 6 -19 -4 -81 -11 -138 -16 -80 -7 -111 -13 -132 -29 -16
-12 -31 -21 -35 -21 -4 0 -17 -9 -29 -20 -12 -11 -46 -29 -75 -40 -48 -18 -56
-18 -77 -5 -22 15 -38 66 -31 101 2 11 19 26 39 36 19 9 50 30 68 47 32 30 36
31 122 31 49 0 97 4 107 9 9 4 35 18 57 29 22 12 48 22 59 22 10 0 47 -28 82
-62z m-471 -7 c9 -16 -26 -42 -53 -39 -33 4 -38 20 -10 34 29 15 55 17 63 5z
m-92 -188 c8 -95 3 -415 -6 -430 -12 -20 -24 -15 -31 10 -8 32 -9 464 -1 477
3 5 12 10 19 10 9 0 15 -21 19 -67z m-145 -20 c2 -9 -7 -13 -27 -13 -30 0 -46
11 -34 24 11 11 56 2 61 -11z m57 -23 c0 -22 -39 -19 -43 3 -3 15 1 18 20 15
12 -2 23 -10 23 -18z m12 -93 c21 -63 -14 -116 -59 -88 -10 6 -22 10 -26 7 -4
-2 -8 -51 -10 -107 -2 -57 -5 -105 -7 -108 -3 -2 -11 2 -19 8 -12 10 -14 40
-12 152 2 144 10 174 40 150 12 -10 17 -8 26 9 18 34 53 22 67 -23z m581 -122
c12 -14 22 -31 22 -38 0 -7 -23 -30 -51 -52 -28 -22 -70 -55 -92 -73 -32 -26
-46 -32 -66 -26 -14 3 -38 7 -53 8 -16 0 -27 6 -26 11 2 10 12 18 141 117 41
31 78 61 82 67 10 17 19 13 43 -14z m-788 -10 c0 -8 -7 -15 -15 -15 -8 0 -15
7 -15 15 0 8 7 15 15 15 8 0 15 -7 15 -15z m198 -17 c-3 -7 -11 -13 -18 -13
-7 0 -15 6 -17 13 -3 7 4 12 17 12 13 0 20 -5 18 -12z m-151 -104 c-4 -48 -21
-75 -43 -67 -17 6 -19 94 -3 124 10 20 11 20 30 3 15 -14 19 -28 16 -60z m149
61 c10 -10 14 -30 12 -62 -3 -43 -6 -48 -29 -51 -22 -3 -29 2 -38 29 -14 42
-14 42 10 73 24 30 26 31 45 11z m54 -159 c83 -12 85 -13 85 -39 -1 -34 20
-35 54 -3 29 27 47 32 76 22 63 -24 61 -21 25 -39 -18 -9 -43 -17 -54 -17 -12
0 -29 -7 -39 -14 -16 -13 -16 -14 -1 -20 27 -10 84 4 151 37 52 26 64 29 77
18 9 -8 16 -21 16 -30 0 -44 28 -45 155 -9 55 16 87 19 145 15 42 -3 84 -9 93
-13 23 -8 21 -41 -3 -92 -11 -22 -20 -45 -20 -51 0 -16 -55 -115 -108 -193
-49 -72 -174 -198 -198 -198 -6 0 -19 -9 -29 -20 -10 -11 -25 -20 -34 -20 -9
0 -25 -7 -35 -15 -56 -42 -280 -90 -396 -83 l-65 3 -7 40 c-9 51 -10 719 -1
728 8 9 11 9 113 -7z m626 -1 c19 -15 19 -15 0 -30 -11 -8 -36 -17 -55 -20
-20 -3 -52 -11 -72 -17 -20 -6 -42 -7 -48 -3 -26 16 -4 39 59 61 79 27 91 28
116 9z m-798 -7 c9 -9 12 -95 12 -326 0 -206 4 -320 11 -334 16 -29 -6 -78
-36 -78 -25 0 -165 45 -208 67 -109 55 -299 217 -318 270 -3 11 3 32 17 53 18
29 21 44 17 88 -5 50 -15 61 -39 44 -16 -11 -34 -48 -34 -71 0 -23 -22 -28
-38 -8 -16 19 -18 73 -3 91 8 9 28 16 48 16 18 0 44 6 56 14 12 8 38 17 57 21
19 4 46 15 60 25 14 9 48 23 75 30 28 8 85 29 128 47 43 18 89 33 103 33 41 0
26 -25 -26 -44 -28 -10 -55 -26 -60 -36 -15 -27 -13 -127 3 -133 6 -2 39 5 72
17 l60 21 3 79 c2 57 -1 82 -10 88 -10 6 -9 12 6 23 24 18 29 18 44 3z m990
-20 c-2 -18 -11 -24 -35 -26 -39 -4 -46 19 -10 36 36 17 49 14 45 -10z"/>
<path d="M1494 1358 c-5 -7 -8 -43 -9 -81 0 -82 9 -94 80 -99 l50 -3 3 83 c2
53 -1 89 -9 98 -14 18 -105 19 -115 2z"/>
<path d="M1743 1329 c-8 -8 -13 -41 -13 -86 0 -83 5 -88 91 -94 l44 -4 6 50
c7 51 1 124 -10 127 -3 0 -17 3 -31 4 -14 2 -36 6 -50 9 -14 4 -30 1 -37 -6z"/>
<path d="M1489 1083 c-6 -35 5 -179 15 -185 19 -13 103 -9 114 5 8 9 9 43 5
100 l-6 87 -63 0 c-35 0 -65 -3 -65 -7z"/>
<path d="M1750 1061 c-23 -15 -24 -151 -1 -168 21 -17 120 -17 126 0 12 40 14
134 3 149 -15 19 -106 33 -128 19z"/>
<path d="M1045 1337 c-35 -19 -41 -28 -46 -64 -3 -24 -8 -45 -11 -49 -13 -12
-28 8 -28 37 0 41 -25 48 -59 15 -23 -22 -28 -35 -27 -69 1 -24 6 -48 10 -55
11 -18 48 -14 76 8 14 11 39 20 57 20 34 0 83 18 95 35 11 15 9 104 -2 126
-13 23 -15 23 -65 -4z"/>
<path d="M2204 2368 c-71 -40 -77 -45 -70 -57 4 -6 15 -11 26 -11 11 0 22 -11
29 -30 12 -35 37 -39 47 -7 3 12 15 41 26 65 29 66 12 78 -58 40z"/>
<path d="M737 2366 c-3 -8 3 -22 14 -32 24 -22 25 -54 2 -54 -10 0 -29 9 -43
20 -49 38 -66 21 -26 -27 32 -38 90 -57 111 -36 22 21 18 72 -7 110 -24 35
-42 42 -51 19z"/>
<path d="M2306 2295 c-3 -13 -20 -35 -36 -47 -29 -21 -41 -58 -19 -58 6 0 25
11 41 25 24 20 37 25 59 20 43 -10 49 18 13 56 -34 36 -50 37 -58 4z"/>
<path d="M2365 2193 c-58 -30 -87 -73 -51 -73 23 0 26 -14 13 -49 -11 -31 -10
-34 17 -58 48 -41 78 -91 67 -112 -11 -19 3 -41 26 -41 24 0 123 42 123 52 0
5 -10 18 -22 28 -19 15 -21 21 -10 31 25 26 14 42 -23 35 -38 -7 -43 0 -24 36
6 11 8 35 4 55 l-6 35 -50 -4 c-40 -4 -49 -2 -49 11 0 9 9 22 20 29 22 13 27
42 8 42 -7 -1 -26 -8 -43 -17z m73 -115 c18 -18 -4 -48 -38 -48 -39 0 -48 19
-20 42 26 21 41 23 58 6z"/>
<path d="M546 2172 c-7 -12 5 -25 61 -59 l51 -31 21 22 c31 32 27 50 -8 43
-18 -4 -42 1 -67 13 -42 22 -51 24 -58 12z"/>
<path d="M492 2108 c-7 -7 -12 -24 -12 -39 0 -21 8 -30 35 -43 48 -23 45 -40
-5 -33 -62 8 -61 -22 1 -37 31 -7 46 -34 23 -43 -8 -3 -26 -1 -40 6 -35 15
-64 14 -64 -4 0 -32 97 -61 129 -38 31 21 44 50 32 72 -8 15 -5 23 19 45 37
33 39 56 5 56 -27 0 -30 2 -79 45 -34 29 -29 28 -44 13z"/>
<path d="M400 1830 c0 -34 16 -45 81 -55 53 -8 68 4 39 30 -11 10 -20 24 -20
32 0 16 -22 17 -38 1 -9 -9 -16 -8 -30 5 -26 24 -32 21 -32 -13z"/>
<path d="M2468 1785 c-38 -21 -37 -58 2 -97 26 -25 35 -29 62 -23 43 10 64 24
80 53 10 19 10 28 -3 50 -12 23 -22 27 -64 29 -30 2 -61 -3 -77 -12z m90 -47
c4 -21 -32 -41 -58 -33 -25 8 -26 42 -2 48 31 9 57 2 60 -15z"/>
<path d="M405 1688 c-29 -17 -44 -40 -45 -66 0 -46 137 -74 160 -33 16 31 12
69 -10 91 -22 22 -73 26 -105 8z m75 -57 c0 -26 -20 -31 -47 -13 -29 18 -21
32 18 32 22 0 29 -5 29 -19z"/>
<path d="M2477 1644 c-14 -14 -7 -34 12 -34 11 0 26 -9 34 -21 12 -16 23 -20
63 -17 40 2 49 7 52 23 1 11 -1 25 -5 31 -9 14 -145 29 -156 18z"/>
<path d="M387 1529 c-18 -10 -18 -12 -1 -30 13 -15 15 -22 6 -31 -36 -36 5
-61 73 -45 68 16 85 28 57 38 -23 9 -29 33 -12 44 6 3 10 13 10 21 0 17 -104
20 -133 3z"/>
<path d="M2467 1446 c-3 -8 -2 -18 3 -21 14 -9 12 -45 -2 -45 -9 0 -9 -3 0
-12 18 -18 14 -45 -8 -51 -22 -6 -26 -29 -7 -45 6 -5 28 -12 47 -16 70 -13 75
-12 78 14 2 14 8 29 13 35 5 5 9 19 9 32 0 17 -6 23 -23 23 -31 0 -78 22 -74
35 2 6 28 10 58 10 42 0 54 4 57 17 2 12 -7 18 -40 23 -24 3 -57 9 -74 12 -22
3 -33 0 -37 -11z"/>
<path d="M496 1380 c-11 -11 -27 -20 -36 -20 -9 0 -26 -10 -39 -21 -33 -31
-11 -48 71 -56 72 -6 92 5 63 37 -10 11 -15 30 -13 47 4 34 -19 41 -46 13z"/>
<path d="M2410 1230 c-10 -6 -14 -24 -12 -60 2 -44 -1 -53 -18 -57 -11 -3 -20
-13 -20 -23 0 -10 -5 -20 -11 -22 -6 -2 -14 -19 -18 -38 -5 -26 -13 -36 -29
-38 -35 -5 -26 -46 10 -50 15 -2 44 -12 65 -22 27 -13 42 -15 51 -8 18 15 15
24 -18 73 -16 24 -30 51 -30 59 0 17 30 22 46 7 15 -14 62 -22 69 -11 3 5 -3
15 -15 22 -28 18 -25 38 5 38 28 0 74 44 75 71 0 22 -16 34 -70 53 -52 18 -60
19 -80 6z m79 -49 c19 -12 6 -41 -18 -41 -23 0 -35 15 -27 35 6 17 24 19 45 6z"/>
<path d="M578 1184 c-3 -3 -25 -6 -49 -7 -53 -2 -60 -19 -30 -80 12 -24 21
-51 21 -60 0 -25 40 -57 71 -57 31 0 79 49 79 80 0 43 -63 67 -90 35 -10 -13
-10 -19 5 -35 17 -19 15 -50 -4 -50 -15 0 -43 65 -39 92 2 13 15 28 31 36 16
8 27 21 27 33 0 18 -11 25 -22 13z"/>
<path d="M670 981 c0 -5 -14 -14 -30 -21 -36 -15 -50 -54 -27 -77 14 -14 20
-13 61 13 49 31 60 47 51 75 -6 19 -55 28 -55 10z"/>
<path d="M720 872 c-55 -53 -62 -72 -26 -72 26 0 96 69 96 94 0 32 -21 25 -70
-22z"/>
<path d="M2203 850 c-52 -21 -30 -100 29 -100 36 0 57 23 58 62 0 41 -38 58
-87 38z"/>
<path d="M773 820 c-35 -44 -39 -60 -15 -67 12 -3 24 -14 27 -24 9 -28 25 -23
62 17 38 41 43 65 13 57 -14 -4 -22 2 -30 21 -12 33 -29 32 -57 -4z"/>
<path d="M904 758 c-3 -13 -19 -42 -35 -65 -26 -40 -27 -43 -10 -52 14 -8 24
-4 44 17 30 31 61 98 52 112 -11 19 -44 10 -51 -12z"/>
<path d="M2042 750 c-12 -5 -27 -22 -33 -37 -9 -24 -7 -30 10 -45 12 -9 27
-18 34 -21 9 -3 9 -9 1 -23 -18 -31 -43 -28 -78 10 -18 20 -38 36 -44 36 -19
0 -33 -38 -34 -91 0 -64 13 -79 40 -45 13 18 30 26 50 26 16 0 35 7 42 15 7 8
21 15 30 15 24 0 76 44 83 71 4 16 -2 25 -23 37 -16 9 -31 26 -32 36 -4 24
-16 28 -46 16z"/>
<path d="M1062 634 c-41 -29 -19 -104 31 -104 34 0 56 24 57 61 0 44 -51 69
-88 43z"/>
<path d="M1252 608 c-7 -7 -12 -25 -12 -41 0 -15 -5 -38 -11 -49 -13 -25 -1
-40 38 -45 63 -8 79 -11 95 -17 9 -4 49 -9 90 -12 40 -2 105 -7 145 -10 l71
-6 35 39 c35 37 35 38 56 19 17 -16 21 -16 21 -4 0 9 7 21 16 29 13 10 19 10
36 0 31 -19 43 0 24 37 -9 17 -16 40 -16 52 0 17 -6 20 -43 20 -36 0 -45 -4
-60 -29 -17 -29 -17 -29 -59 -14 -23 8 -52 12 -65 8 -19 -4 -23 -12 -23 -45 0
-21 -5 -42 -10 -45 -16 -10 -40 14 -40 40 0 27 -24 49 -45 41 -8 -3 -25 -26
-37 -51 -24 -50 -55 -59 -50 -15 8 70 7 75 -15 78 -13 2 -31 -7 -46 -24 l-26
-27 -16 41 c-18 43 -32 51 -53 30z m432 -81 c8 -13 6 -22 -11 -38 -39 -40 -74
1 -36 43 19 21 32 20 47 -5z"/>
</g>
</svg>
